<svg width="12" height="15" viewBox="0 0 12 15" fill="none" xmlns="http://www.w3.org/2000/svg">
<path d="M10.3636 15H3.81818C3.6733 15 3.5348 14.9435 3.43253 14.8431L0.159801 11.6288C0.0575287 11.5283 0 11.392 0 11.25V3.75C0 2.86377 0.73402 2.14286 1.63636 2.14286H4.36364V0.535714C4.36364 0.239868 4.6076 0 4.90909 0H7.09091C7.3924 0 7.63636 0.239868 7.63636 0.535714V2.14286H10.3636C11.266 2.14286 12 2.86377 12 3.75V13.3929C12 14.2791 11.266 15 10.3636 15ZM4.36364 13.9286H10.3636C10.6646 13.9286 10.9091 13.6882 10.9091 13.3929V3.75C10.9091 3.45468 10.6646 3.21429 10.3636 3.21429H7.63636V4.28571C7.63636 4.58156 7.3924 4.82143 7.09091 4.82143H4.90909C4.6076 4.82143 4.36364 4.58156 4.36364 4.28571V3.21429H1.63636C1.3354 3.21429 1.09091 3.45468 1.09091 3.75V10.7143H3.27273C3.87411 10.7143 4.36364 11.1948 4.36364 11.7857V13.9286ZM1.86222 11.7857L3.27273 13.171V11.7857H1.86222ZM5.45455 3.75H6.54545V1.07143H5.45455V3.75ZM9.27273 11.25H6C5.69851 11.25 5.45455 11.0101 5.45455 10.7143C5.45455 10.4184 5.69851 10.1786 6 10.1786H9.27273C9.57422 10.1786 9.81818 10.4184 9.81818 10.7143C9.81818 11.0101 9.57422 11.25 9.27273 11.25ZM9.27273 9.10714H2.72727C2.42578 9.10714 2.18182 8.86727 2.18182 8.57143C2.18182 8.27558 2.42578 8.03571 2.72727 8.03571H9.27273C9.57422 8.03571 9.81818 8.27558 9.81818 8.57143C9.81818 8.86727 9.57422 9.10714 9.27273 9.10714ZM9.27273 6.96429H2.72727C2.42578 6.96429 2.18182 6.72442 2.18182 6.42857C2.18182 6.13273 2.42578 5.89286 2.72727 5.89286H9.27273C9.57422 5.89286 9.81818 6.13273 9.81818 6.42857C9.81818 6.72442 9.57422 6.96429 9.27273 6.96429Z" fill="#2A2C31"/>
</svg>
